<?xml version="1.0" encoding="UTF-8"?>
<svg xmlns="http://www.w3.org/2000/svg" viewBox="0 0 64 64" width="64" height="64">
  <defs>
    <clipPath id="shirt-St-Johns-United">
      <path d="M16,4 L4,14 L0,32 L8,36 L14,56 L50,56 L56,36 L64,32 L60,14 L48,4 L40,2 L32,8 L24,2 Z"/>
    </clipPath>
    <pattern id="stripes-St-Johns-United" patternUnits="userSpaceOnUse" width="10" height="10">
      <rect width="5" height="10" fill="#1B3A8C"/>
      <rect x="5" width="5" height="10" fill="#FFD700"/>
    </pattern>
  </defs>
  <g clip-path="url(#shirt-St-Johns-United)">
    <rect x="0" y="0" width="64" height="64" fill="url(#stripes-St-Johns-United)"/>
  </g>
  <path d="M16,4 L4,14 L0,32 L8,36 L14,56 L50,56 L56,36 L64,32 L60,14 L48,4 L40,2 L32,8 L24,2 Z" fill="none" stroke="#333" stroke-width="0.6" opacity="0.3"/>
  <path d="M24,2 Q32,8 40,2" fill="none" stroke="#333" stroke-width="0.5" opacity="0.2"/>
</svg>